<?xml version="1.0" standalone="no"?>
<!DOCTYPE svg PUBLIC "-//W3C//DTD SVG 20010904//EN"
 "http://www.w3.org/TR/2001/REC-SVG-20010904/DTD/svg10.dtd">
<svg version="1.0" xmlns="http://www.w3.org/2000/svg"
 width="192.000000pt" height="192.000000pt" viewBox="0 0 192.000000 192.000000"
 preserveAspectRatio="xMidYMid meet">
<metadata>
Created by potrace 1.11, written by Peter Selinger 2001-2013
</metadata>
<g transform="translate(0.000000,192.000000) scale(0.100000,-0.100000)"
fill="#000000" stroke="none">
<path d="M912 1856 c-32 -35 -37 -56 -47 -197 -8 -108 -9 -123 -20 -249 -4
-41 -8 -97 -9 -125 -4 -60 -16 -188 -21 -212 -2 -10 -4 -21 -4 -25 -2 -20 -21
-5 -30 25 -20 67 -32 199 -46 526 -6 139 -18 187 -48 197 -38 13 -46 13 -67
-4 -27 -22 -37 -69 -34 -162 4 -115 3 -581 -1 -620 -2 -19 -4 -41 -4 -47 -2
-21 -17 -15 -29 11 -10 22 -21 73 -36 171 -3 17 -7 55 -10 85 -15 152 -32 248
-48 267 -16 19 -53 16 -73 -7 -22 -24 -23 -101 -11 -440 13 -359 22 -487 41
-580 3 -14 8 -38 11 -54 8 -48 51 -145 83 -187 71 -98 208 -154 371 -151 25 0
47 1 50 2 3 1 16 3 30 5 108 11 262 95 331 180 10 11 29 34 43 50 42 48 129
236 213 460 8 22 19 48 25 59 5 10 12 42 14 70 6 60 -8 82 -52 89 -64 10 -115
-62 -174 -242 -12 -35 -39 -100 -62 -145 -37 -73 -42 -79 -49 -57 -8 19 -15
22 -39 19 -29 -4 -37 1 -22 16 4 4 7 11 8 14 0 4 3 21 7 37 19 85 28 217 43
625 13 340 12 375 -12 407 -22 29 -46 36 -76 21 -23 -11 -47 -81 -53 -158 -7
-77 -11 -125 -19 -200 -3 -30 -8 -86 -11 -125 -9 -123 -36 -198 -64 -181 -10
7 -8 411 4 642 5 106 4 138 -9 167 -8 21 -21 37 -28 38 -7 0 -21 2 -30 4 -9 2
-25 -7 -36 -19z"/>
</g>
</svg>
